<svg width="83" height="40" viewBox="0 0 83 40" fill="none" xmlns="http://www.w3.org/2000/svg">
<path d="M42.0791 14.9H46.2131C47.2011 14.9 48.0721 15.0907 48.8261 15.472C49.5888 15.8447 50.1781 16.3733 50.5941 17.058C51.0188 17.7427 51.2311 18.54 51.2311 19.45C51.2311 20.36 51.0188 21.1573 50.5941 21.842C50.1781 22.5267 49.5888 23.0597 48.8261 23.441C48.0721 23.8137 47.2011 24 46.2131 24H42.0791V14.9ZM46.1091 22.271C47.0191 22.271 47.7428 22.0197 48.2801 21.517C48.8261 21.0057 49.0991 20.3167 49.0991 19.45C49.0991 18.5833 48.8261 17.8987 48.2801 17.396C47.7428 16.8847 47.0191 16.629 46.1091 16.629H44.1851V22.271H46.1091Z" fill="#26CBDF"/>
<path d="M59.7223 17.006V24H57.7983V23.168C57.5297 23.4713 57.209 23.7053 56.8363 23.87C56.4637 24.026 56.0607 24.104 55.6273 24.104C54.7087 24.104 53.9807 23.8397 53.4433 23.311C52.906 22.7823 52.6373 21.998 52.6373 20.958V17.006H54.6653V20.659C54.6653 21.7857 55.1377 22.349 56.0823 22.349C56.5677 22.349 56.9577 22.193 57.2523 21.881C57.547 21.5603 57.6943 21.088 57.6943 20.464V17.006H59.7223Z" fill="#26CBDF"/>
<path d="M61.6011 14.354H63.6291V24H61.6011V14.354Z" fill="#26CBDF"/>
<path d="M68.8913 24.104C68.146 24.104 67.4743 23.9523 66.8763 23.649C66.287 23.337 65.8233 22.908 65.4853 22.362C65.156 21.816 64.9913 21.1963 64.9913 20.503C64.9913 19.8097 65.156 19.19 65.4853 18.644C65.8233 18.098 66.287 17.6733 66.8763 17.37C67.4743 17.058 68.146 16.902 68.8913 16.902C69.628 16.902 70.2693 17.058 70.8153 17.37C71.37 17.6733 71.773 18.111 72.0243 18.683L70.4513 19.528C70.0873 18.8867 69.563 18.566 68.8783 18.566C68.3496 18.566 67.912 18.7393 67.5653 19.086C67.2186 19.4327 67.0453 19.905 67.0453 20.503C67.0453 21.101 67.2186 21.5733 67.5653 21.92C67.912 22.2667 68.3496 22.44 68.8783 22.44C69.5716 22.44 70.096 22.1193 70.4513 21.478L72.0243 22.336C71.773 22.8907 71.37 23.324 70.8153 23.636C70.2693 23.948 69.628 24.104 68.8913 24.104Z" fill="#26CBDF"/>
<path d="M79.9541 20.529C79.9541 20.555 79.9411 20.737 79.9151 21.075H74.6241C74.7194 21.5083 74.9448 21.8507 75.3001 22.102C75.6554 22.3533 76.0974 22.479 76.6261 22.479C76.9901 22.479 77.3108 22.427 77.5881 22.323C77.8741 22.2103 78.1384 22.037 78.3811 21.803L79.4601 22.973C78.8014 23.727 77.8394 24.104 76.5741 24.104C75.7854 24.104 75.0878 23.9523 74.4811 23.649C73.8744 23.337 73.4064 22.908 73.0771 22.362C72.7478 21.816 72.5831 21.1963 72.5831 20.503C72.5831 19.8183 72.7434 19.203 73.0641 18.657C73.3934 18.1023 73.8398 17.6733 74.4031 17.37C74.9751 17.058 75.6121 16.902 76.3141 16.902C76.9988 16.902 77.6184 17.0493 78.1731 17.344C78.7278 17.6387 79.1611 18.0633 79.4731 18.618C79.7938 19.164 79.9541 19.801 79.9541 20.529ZM76.3271 18.436C75.8678 18.436 75.4821 18.566 75.1701 18.826C74.8581 19.086 74.6674 19.4413 74.5981 19.892H78.0431C77.9738 19.45 77.7831 19.099 77.4711 18.839C77.1591 18.5703 76.7778 18.436 76.3271 18.436Z" fill="#26CBDF"/>
<path d="M49.0718 8.0499H44.8468L44.0408 9.9999H41.8828L45.9388 0.899902H48.0188L52.0878 9.9999H49.8778L49.0718 8.0499ZM48.4088 6.4509L46.9658 2.9669L45.5228 6.4509H48.4088Z" fill="#26CBDF"/>
<path d="M57.0229 2.9019C57.6729 2.9019 58.2623 3.05357 58.7909 3.3569C59.3283 3.65157 59.7486 4.0719 60.0519 4.6179C60.3553 5.15524 60.5069 5.78357 60.5069 6.5029C60.5069 7.22224 60.3553 7.8549 60.0519 8.4009C59.7486 8.93824 59.3283 9.35857 58.7909 9.6619C58.2623 9.95657 57.6729 10.1039 57.0229 10.1039C56.1303 10.1039 55.4283 9.82224 54.9169 9.2589V12.5219H52.8889V3.0059H54.8259V3.8119C55.3286 3.20524 56.0609 2.9019 57.0229 2.9019ZM56.6719 8.4399C57.1919 8.4399 57.6166 8.26657 57.9459 7.9199C58.2839 7.56457 58.4529 7.09224 58.4529 6.5029C58.4529 5.91357 58.2839 5.44557 57.9459 5.0989C57.6166 4.74357 57.1919 4.5659 56.6719 4.5659C56.1519 4.5659 55.7229 4.74357 55.3849 5.0989C55.0556 5.44557 54.8909 5.91357 54.8909 6.5029C54.8909 7.09224 55.0556 7.56457 55.3849 7.9199C55.7229 8.26657 56.1519 8.4399 56.6719 8.4399Z" fill="#26CBDF"/>
<path d="M65.9985 2.9019C66.6485 2.9019 67.2379 3.05357 67.7665 3.3569C68.3039 3.65157 68.7242 4.0719 69.0275 4.6179C69.3309 5.15524 69.4825 5.78357 69.4825 6.5029C69.4825 7.22224 69.3309 7.8549 69.0275 8.4009C68.7242 8.93824 68.3039 9.35857 67.7665 9.6619C67.2379 9.95657 66.6485 10.1039 65.9985 10.1039C65.1059 10.1039 64.4039 9.82224 63.8925 9.2589V12.5219H61.8645V3.0059H63.8015V3.8119C64.3042 3.20524 65.0365 2.9019 65.9985 2.9019ZM65.6475 8.4399C66.1675 8.4399 66.5922 8.26657 66.9215 7.9199C67.2595 7.56457 67.4285 7.09224 67.4285 6.5029C67.4285 5.91357 67.2595 5.44557 66.9215 5.0989C66.5922 4.74357 66.1675 4.5659 65.6475 4.5659C65.1275 4.5659 64.6985 4.74357 64.3605 5.0989C64.0312 5.44557 63.8665 5.91357 63.8665 6.5029C63.8665 7.09224 64.0312 7.56457 64.3605 7.9199C64.6985 8.26657 65.1275 8.4399 65.6475 8.4399Z" fill="#26CBDF"/>
<path d="M50.4251 27.8999V36.9999H48.3191V33.2689H44.1851V36.9999H42.0791V27.8999H44.1851V31.4879H48.3191V27.8999H50.4251Z" fill="#26CBDF"/>
<path d="M55.7631 37.1039C55.0265 37.1039 54.3635 36.9522 53.7741 36.6489C53.1935 36.3369 52.7385 35.9079 52.4091 35.3619C52.0798 34.8159 51.9151 34.1962 51.9151 33.5029C51.9151 32.8096 52.0798 32.1899 52.4091 31.6439C52.7385 31.0979 53.1935 30.6732 53.7741 30.3699C54.3635 30.0579 55.0265 29.9019 55.7631 29.9019C56.4998 29.9019 57.1585 30.0579 57.7391 30.3699C58.3198 30.6732 58.7748 31.0979 59.1041 31.6439C59.4335 32.1899 59.5981 32.8096 59.5981 33.5029C59.5981 34.1962 59.4335 34.8159 59.1041 35.3619C58.7748 35.9079 58.3198 36.3369 57.7391 36.6489C57.1585 36.9522 56.4998 37.1039 55.7631 37.1039ZM55.7631 35.4399C56.2831 35.4399 56.7078 35.2666 57.0371 34.9199C57.3751 34.5646 57.5441 34.0922 57.5441 33.5029C57.5441 32.9136 57.3751 32.4456 57.0371 32.0989C56.7078 31.7436 56.2831 31.5659 55.7631 31.5659C55.2431 31.5659 54.8141 31.7436 54.4761 32.0989C54.1381 32.4456 53.9691 32.9136 53.9691 33.5029C53.9691 34.0922 54.1381 34.5646 54.4761 34.9199C54.8141 35.2666 55.2431 35.4399 55.7631 35.4399Z" fill="#26CBDF"/>
<path d="M68.1687 30.0059V35.8299C68.1687 37.1126 67.835 38.0659 67.1677 38.6899C66.5003 39.3139 65.5253 39.6259 64.2427 39.6259C63.5667 39.6259 62.9253 39.5436 62.3187 39.3789C61.712 39.2142 61.2093 38.9759 60.8107 38.6639L61.6167 37.2079C61.9113 37.4506 62.284 37.6412 62.7347 37.7799C63.1853 37.9272 63.636 38.0009 64.0867 38.0009C64.7887 38.0009 65.3043 37.8406 65.6337 37.5199C65.9717 37.2079 66.1407 36.7312 66.1407 36.0899V35.7909C65.612 36.3716 64.8753 36.6619 63.9307 36.6619C63.2893 36.6619 62.7 36.5232 62.1627 36.2459C61.634 35.9599 61.2137 35.5612 60.9017 35.0499C60.5897 34.5386 60.4337 33.9492 60.4337 33.2819C60.4337 32.6146 60.5897 32.0252 60.9017 31.5139C61.2137 31.0026 61.634 30.6082 62.1627 30.3309C62.7 30.0449 63.2893 29.9019 63.9307 29.9019C64.9447 29.9019 65.716 30.2356 66.2447 30.9029V30.0059H68.1687ZM64.3337 34.9979C64.871 34.9979 65.3087 34.8419 65.6467 34.5299C65.9933 34.2092 66.1667 33.7932 66.1667 33.2819C66.1667 32.7706 65.9933 32.3589 65.6467 32.0469C65.3087 31.7262 64.871 31.5659 64.3337 31.5659C63.7963 31.5659 63.3543 31.7262 63.0077 32.0469C62.661 32.3589 62.4877 32.7706 62.4877 33.2819C62.4877 33.7932 62.661 34.2092 63.0077 34.5299C63.3543 34.8419 63.7963 34.9979 64.3337 34.9979Z" fill="#26CBDF"/>
<path d="M72.8772 29.9019C73.9606 29.9019 74.7926 30.1619 75.3732 30.6819C75.9539 31.1932 76.2442 31.9689 76.2442 33.0089V36.9999H74.3462V36.1289C73.9649 36.7789 73.2542 37.1039 72.2142 37.1039C71.6769 37.1039 71.2089 37.0129 70.8102 36.8309C70.4202 36.6489 70.1212 36.3976 69.9132 36.0769C69.7052 35.7562 69.6012 35.3922 69.6012 34.9849C69.6012 34.3349 69.8439 33.8236 70.3292 33.4509C70.8232 33.0782 71.5816 32.8919 72.6042 32.8919H74.2162C74.2162 32.4499 74.0819 32.1119 73.8132 31.8779C73.5446 31.6352 73.1416 31.5139 72.6042 31.5139C72.2316 31.5139 71.8632 31.5746 71.4992 31.6959C71.1439 31.8086 70.8406 31.9646 70.5892 32.1639L69.8612 30.7469C70.2426 30.4782 70.6976 30.2702 71.2262 30.1229C71.7636 29.9756 72.3139 29.9019 72.8772 29.9019ZM72.7212 35.7389C73.0679 35.7389 73.3756 35.6609 73.6442 35.5049C73.9129 35.3402 74.1036 35.1019 74.2162 34.7899V34.0749H72.8252C71.9932 34.0749 71.5772 34.3479 71.5772 34.8939C71.5772 35.1539 71.6769 35.3619 71.8762 35.5179C72.0842 35.6652 72.3659 35.7389 72.7212 35.7389Z" fill="#26CBDF"/>
<path d="M80.0167 30.9289C80.2593 30.5909 80.5843 30.3352 80.9917 30.1619C81.4077 29.9886 81.8843 29.9019 82.4217 29.9019V31.7739C82.1963 31.7566 82.0447 31.7479 81.9667 31.7479C81.386 31.7479 80.931 31.9126 80.6017 32.2419C80.2723 32.5626 80.1077 33.0479 80.1077 33.6979V36.9999H78.0797V30.0059H80.0167V30.9289Z" fill="#26CBDF"/>
<path fill-rule="evenodd" clip-rule="evenodd" d="M3 1C1.34315 1 0 2.34315 0 4V34C0 35.6569 1.34315 37 3 37H33C34.6569 37 36 35.6569 36 34V4C36 2.34315 34.6569 1 33 1H3ZM18.3142 7.11115C18.1309 6.96311 17.8692 6.96311 17.6859 7.11115L4.68589 17.6112C4.52103 17.7443 4.45802 17.9669 4.52863 18.1667C4.59924 18.3665 4.78814 18.5001 5.00006 18.5001H8.50003V29.0001C8.50003 29.2763 8.72389 29.5001 9.00003 29.5001H27C27.2762 29.5001 27.5 29.2763 27.5 29.0001V18.5001H31.0001C31.212 18.5001 31.4009 18.3665 31.4715 18.1667C31.5421 17.9669 31.4791 17.7443 31.3142 17.6112L18.3142 7.11115ZM27.433 17.5001H29.5853L18.0001 8.14284L6.41485 17.5001H8.54551V17.5418C8.57741 17.4722 8.62525 17.41 8.68636 17.3607L17.6864 10.1107C17.8695 9.96325 18.1306 9.96325 18.3137 10.1107L27.3137 17.3607C27.3623 17.3999 27.4026 17.4473 27.433 17.5001ZM9.50003 28.5001V17.9894L18 11.1422L26.5 17.9894V28.5001H9.50003ZM22.7438 17.7214C21.3891 16.6369 19.2961 16.7998 18 18.0561C16.7039 16.7998 14.611 16.6346 13.2563 17.7214C11.4938 19.134 11.7516 21.4369 13.0078 22.6576L17.1188 26.6453C17.3532 26.8729 17.6672 27.0001 18 27.0001C18.3352 27.0001 18.6469 26.8752 18.8813 26.6475L22.9922 22.6598C24.2461 21.4391 24.5086 19.1362 22.7438 17.7214ZM22.1906 21.9055L18.0797 25.8933C18.0235 25.9468 17.9766 25.9468 17.9203 25.8933L13.8094 21.9055C12.9539 21.0754 12.7805 19.5044 13.9805 18.5426C14.8922 17.8129 16.2985 17.9222 17.1797 18.7769L18 19.5736L18.8203 18.7769C19.7063 17.9178 21.1125 17.8129 22.0196 18.5404C23.2172 19.5022 23.0391 21.0821 22.1906 21.9055Z" fill="#26CBDF"/>
</svg>
