<svg width="32" height="32" viewBox="0 0 36 38" fill="none" xmlns="http://www.w3.org/2000/svg">
<path fill-rule="evenodd" clip-rule="evenodd" d="M3 1C1.34315 1 0 2.34315 0 4V34C0 35.6569 1.34315 37 3 37H33C34.6569 37 36 35.6569 36 34V4C36 2.34315 34.6569 1 33 1H3ZM18.3142 7.11115C18.1309 6.96311 17.8692 6.96311 17.6859 7.11115L4.68589 17.6112C4.52103 17.7443 4.45802 17.9669 4.52863 18.1667C4.59924 18.3665 4.78814 18.5001 5.00006 18.5001H8.50003V29.0001C8.50003 29.2763 8.72389 29.5001 9.00003 29.5001H27C27.2762 29.5001 27.5 29.2763 27.5 29.0001V18.5001H31.0001C31.212 18.5001 31.4009 18.3665 31.4715 18.1667C31.5421 17.9669 31.4791 17.7443 31.3142 17.6112L18.3142 7.11115ZM27.433 17.5001H29.5853L18.0001 8.14284L6.41485 17.5001H8.54551V17.5418C8.57741 17.4722 8.62525 17.41 8.68636 17.3607L17.6864 10.1107C17.8695 9.96325 18.1306 9.96325 18.3137 10.1107L27.3137 17.3607C27.3623 17.3999 27.4026 17.4473 27.433 17.5001ZM9.50003 28.5001V17.9894L18 11.1422L26.5 17.9894V28.5001H9.50003ZM22.7438 17.7214C21.3891 16.6369 19.2961 16.7998 18 18.0561C16.7039 16.7998 14.611 16.6346 13.2563 17.7214C11.4938 19.134 11.7516 21.4369 13.0078 22.6576L17.1188 26.6453C17.3532 26.8729 17.6672 27.0001 18 27.0001C18.3352 27.0001 18.6469 26.8752 18.8813 26.6475L22.9922 22.6598C24.2461 21.4391 24.5086 19.1362 22.7438 17.7214ZM22.1906 21.9055L18.0797 25.8933C18.0235 25.9468 17.9766 25.9468 17.9203 25.8933L13.8094 21.9055C12.9539 21.0754 12.7805 19.5044 13.9805 18.5426C14.8922 17.8129 16.2985 17.9222 17.1797 18.7769L18 19.5736L18.8203 18.7769C19.7063 17.9178 21.1125 17.8129 22.0196 18.5404C23.2172 19.5022 23.0391 21.0821 22.1906 21.9055Z" fill="black"/>
</svg>

